<?xml version="1.0" encoding="UTF-8" standalone="no"?>
<!DOCTYPE svg PUBLIC "-//W3C//DTD SVG 20010904//EN"
              "http://www.w3.org/TR/2001/REC-SVG-20010904/DTD/svg10.dtd">

<svg xmlns="http://www.w3.org/2000/svg"
     width="10in" height="1.33333in"
     viewBox="0 0 900 120">
  <path id="heartbeat01"
        fill="white" stroke="none"
        d="M 0.00,66.00
           C 0.00,66.00 30.00,66.00 30.00,66.00
             30.00,66.00 36.00,56.00 36.00,56.00
             36.00,56.00 44.00,72.00 44.00,72.00
             44.00,72.00 51.00,50.00 51.00,50.00
             51.00,50.00 60.00,120.00 60.00,120.00
             60.00,120.00 68.00,0.00 68.00,0.00
             68.00,0.00 76.00,76.00 76.00,76.00
             76.00,76.00 86.00,57.00 86.00,57.00
             86.00,57.00 92.00,70.00 92.00,70.00
             92.00,70.00 96.00,66.00 96.00,66.00
             96.00,66.00 160.00,66.00 160.00,66.00
             160.00,66.00 166.00,56.00 166.00,56.00
             166.00,56.00 174.00,72.00 174.00,72.00
             174.00,72.00 181.00,50.00 181.00,50.00
             181.00,50.00 190.00,120.00 190.00,120.00
             190.00,120.00 198.00,0.00 198.00,0.00
             198.00,0.00 206.00,76.00 206.00,76.00
             206.00,76.00 216.00,57.00 216.00,57.00
             216.00,57.00 222.00,70.00 222.00,70.00
             222.00,70.00 226.00,66.00 226.00,66.00
             226.00,66.00 290.00,66.00 290.00,66.00
             290.00,66.00 296.00,56.00 296.00,56.00
             296.00,56.00 304.00,72.00 304.00,72.00
             304.00,72.00 311.00,50.00 311.00,50.00
             311.00,50.00 320.00,120.00 320.00,120.00
             320.00,120.00 328.00,0.00 328.00,0.00
             328.00,0.00 336.00,76.00 336.00,76.00
             336.00,76.00 346.00,57.00 346.00,57.00
             346.00,57.00 352.00,70.00 352.00,70.00
             352.00,70.00 356.00,66.00 356.00,66.00
             356.00,66.00 420.00,66.00 420.00,66.00
             420.00,66.00 426.00,56.00 426.00,56.00
             426.00,56.00 434.00,72.00 434.00,72.00
             434.00,72.00 441.00,50.00 441.00,50.00
             441.00,50.00 450.00,120.00 450.00,120.00
             450.00,120.00 458.00,0.00 458.00,0.00
             458.00,0.00 466.00,76.00 466.00,76.00
             466.00,76.00 476.00,57.00 476.00,57.00
             476.00,57.00 482.00,70.00 482.00,70.00
             482.00,70.00 486.00,66.00 486.00,66.00
             486.00,66.00 550.00,66.00 550.00,66.00
             550.00,66.00 556.00,56.00 556.00,56.00
             556.00,56.00 564.00,72.00 564.00,72.00
             564.00,72.00 571.00,50.00 571.00,50.00
             571.00,50.00 580.00,120.00 580.00,120.00
             580.00,120.00 588.00,0.00 588.00,0.00
             588.00,0.00 596.00,76.00 596.00,76.00
             596.00,76.00 606.00,57.00 606.00,57.00
             606.00,57.00 612.00,70.00 612.00,70.00
             612.00,70.00 616.00,66.00 616.00,66.00
             616.00,66.00 680.00,66.00 680.00,66.00
             680.00,66.00 686.00,56.00 686.00,56.00
             686.00,56.00 694.00,72.00 694.00,72.00
             694.00,72.00 701.00,50.00 701.00,50.00
             701.00,50.00 710.00,120.00 710.00,120.00
             710.00,120.00 718.00,0.00 718.00,0.00
             718.00,0.00 726.00,76.00 726.00,76.00
             726.00,76.00 736.00,57.00 736.00,57.00
             736.00,57.00 742.00,70.00 742.00,70.00
             742.00,70.00 746.00,66.00 746.00,66.00
             746.00,66.00 810.00,66.00 810.00,66.00
             810.00,66.00 816.00,56.00 816.00,56.00
             816.00,56.00 824.00,72.00 824.00,72.00
             824.00,72.00 831.00,50.00 831.00,50.00
             831.00,50.00 840.00,120.00 840.00,120.00
             840.00,120.00 848.00,0.00 848.00,0.00
             848.00,0.00 856.00,76.00 856.00,76.00
             856.00,76.00 866.00,57.00 866.00,57.00
             866.00,57.00 872.00,70.00 872.00,70.00
             872.00,70.00 876.00,66.00 876.00,66.00
             876.00,66.00 900.00,66.00 900.00,66.00
             900.00,66.00 900.00,120.00 900.00,120.00
             900.00,120.00 0.00,120.00 0.00,120.00
             0.00,120.00 0.00,66.00 0.00,66.00 Z" />
</svg>
